<mxfile host="app.diagrams.net" modified="2020-10-25T16:19:20.212Z" agent="5.0 (X11)" etag="WN2SL8qvMfYFkMXcX6dt" version="13.8.2" type="github">
  <diagram name="Page-1" id="e7e014a7-5840-1c2e-5031-d8a46d1fe8dd">
    <mxGraphModel dx="3595" dy="1284" grid="1" gridSize="10" guides="1" tooltips="1" connect="1" arrows="1" fold="1" page="1" pageScale="1" pageWidth="1169" pageHeight="826" background="#ffffff" math="0" shadow="0">
      <root>
        <mxCell id="0" />
        <mxCell id="1" parent="0" />
        <mxCell id="jn4TW-u3W-nK7IEm40rL-72" value="" style="edgeStyle=orthogonalEdgeStyle;rounded=0;orthogonalLoop=1;jettySize=auto;html=1;endArrow=open;endFill=0;strokeColor=#000000;" parent="1" source="jn4TW-u3W-nK7IEm40rL-68" target="jn4TW-u3W-nK7IEm40rL-71" edge="1">
          <mxGeometry relative="1" as="geometry" />
        </mxCell>
        <mxCell id="jn4TW-u3W-nK7IEm40rL-116" style="edgeStyle=orthogonalEdgeStyle;rounded=0;orthogonalLoop=1;jettySize=auto;html=1;exitX=0;exitY=0.5;exitDx=0;exitDy=0;entryX=0.5;entryY=0;entryDx=0;entryDy=0;endArrow=open;endFill=0;strokeColor=#000000;" parent="1" source="jn4TW-u3W-nK7IEm40rL-77" target="jn4TW-u3W-nK7IEm40rL-85" edge="1">
          <mxGeometry relative="1" as="geometry" />
        </mxCell>
        <mxCell id="jn4TW-u3W-nK7IEm40rL-136" value="" style="group" parent="1" vertex="1" connectable="0">
          <mxGeometry x="490" y="140" width="650" height="1560" as="geometry" />
        </mxCell>
        <mxCell id="jn4TW-u3W-nK7IEm40rL-135" value="Vaultionizer Server (vault-server)" style="swimlane;strokeWidth=3;" parent="jn4TW-u3W-nK7IEm40rL-136" vertex="1">
          <mxGeometry width="650" height="1560" as="geometry" />
        </mxCell>
        <mxCell id="jn4TW-u3W-nK7IEm40rL-71" value="Search for file with ID in user folder" style="rounded=0;whiteSpace=wrap;html=1;" parent="jn4TW-u3W-nK7IEm40rL-135" vertex="1">
          <mxGeometry x="275" y="198.09523809523807" width="100" height="41.269841269841265" as="geometry" />
        </mxCell>
        <mxCell id="jn4TW-u3W-nK7IEm40rL-75" value="" style="rhombus;whiteSpace=wrap;html=1;rounded=0;" parent="jn4TW-u3W-nK7IEm40rL-135" vertex="1">
          <mxGeometry x="285" y="272.38095238095235" width="80" height="66.03174603174602" as="geometry" />
        </mxCell>
        <mxCell id="jn4TW-u3W-nK7IEm40rL-76" value="" style="edgeStyle=orthogonalEdgeStyle;rounded=0;orthogonalLoop=1;jettySize=auto;html=1;endArrow=open;endFill=0;strokeColor=#000000;" parent="jn4TW-u3W-nK7IEm40rL-135" source="jn4TW-u3W-nK7IEm40rL-71" target="jn4TW-u3W-nK7IEm40rL-75" edge="1">
          <mxGeometry relative="1" as="geometry" />
        </mxCell>
        <mxCell id="jn4TW-u3W-nK7IEm40rL-80" value="[File does not exists]" style="edgeStyle=orthogonalEdgeStyle;rounded=0;orthogonalLoop=1;jettySize=auto;html=1;endArrow=open;endFill=0;strokeColor=#000000;exitX=1;exitY=0.5;exitDx=0;exitDy=0;" parent="jn4TW-u3W-nK7IEm40rL-135" source="jn4TW-u3W-nK7IEm40rL-75" target="jn4TW-u3W-nK7IEm40rL-79" edge="1">
          <mxGeometry relative="1" as="geometry" />
        </mxCell>
        <mxCell id="jn4TW-u3W-nK7IEm40rL-78" value="[File exists]" style="edgeStyle=orthogonalEdgeStyle;rounded=0;orthogonalLoop=1;jettySize=auto;html=1;endArrow=open;endFill=0;strokeColor=#000000;exitX=0;exitY=0.5;exitDx=0;exitDy=0;" parent="jn4TW-u3W-nK7IEm40rL-135" source="jn4TW-u3W-nK7IEm40rL-75" target="jn4TW-u3W-nK7IEm40rL-77" edge="1">
          <mxGeometry relative="1" as="geometry">
            <mxPoint x="445" y="437.4603174603174" as="sourcePoint" />
            <mxPoint x="445" y="379.68253968253964" as="targetPoint" />
          </mxGeometry>
        </mxCell>
        <mxCell id="jn4TW-u3W-nK7IEm40rL-77" value="Send file to client via WebSocket" style="whiteSpace=wrap;html=1;rounded=0;" parent="jn4TW-u3W-nK7IEm40rL-135" vertex="1">
          <mxGeometry x="165" y="429.20634920634916" width="120" height="49.52380952380952" as="geometry" />
        </mxCell>
        <mxCell id="jn4TW-u3W-nK7IEm40rL-79" value="Send error code &quot;Not Found&quot; to client" style="whiteSpace=wrap;html=1;rounded=0;" parent="jn4TW-u3W-nK7IEm40rL-135" vertex="1">
          <mxGeometry x="365" y="429.20634920634916" width="120" height="49.52380952380952" as="geometry" />
        </mxCell>
        <mxCell id="jn4TW-u3W-nK7IEm40rL-137" value="" style="group" parent="1" vertex="1" connectable="0">
          <mxGeometry x="-180" y="140" width="670" height="1890" as="geometry" />
        </mxCell>
        <mxCell id="jn4TW-u3W-nK7IEm40rL-64" value="Click on file" style="rounded=0;whiteSpace=wrap;html=1;" parent="jn4TW-u3W-nK7IEm40rL-137" vertex="1">
          <mxGeometry x="325" y="70" width="90" height="40" as="geometry" />
        </mxCell>
        <mxCell id="jn4TW-u3W-nK7IEm40rL-66" value="Get File ID from cached reference table" style="rounded=0;whiteSpace=wrap;html=1;" parent="jn4TW-u3W-nK7IEm40rL-137" vertex="1">
          <mxGeometry x="320" y="140" width="100" height="50" as="geometry" />
        </mxCell>
        <mxCell id="jn4TW-u3W-nK7IEm40rL-67" value="" style="edgeStyle=orthogonalEdgeStyle;rounded=0;orthogonalLoop=1;jettySize=auto;html=1;endArrow=open;endFill=0;strokeColor=#000000;" parent="jn4TW-u3W-nK7IEm40rL-137" source="jn4TW-u3W-nK7IEm40rL-64" target="jn4TW-u3W-nK7IEm40rL-66" edge="1">
          <mxGeometry relative="1" as="geometry" />
        </mxCell>
        <mxCell id="jn4TW-u3W-nK7IEm40rL-68" value="Request file from server via WebSocket" style="rounded=0;whiteSpace=wrap;html=1;" parent="jn4TW-u3W-nK7IEm40rL-137" vertex="1">
          <mxGeometry x="470" y="240" width="100" height="50" as="geometry" />
        </mxCell>
        <mxCell id="jn4TW-u3W-nK7IEm40rL-81" value="Show error message" style="whiteSpace=wrap;html=1;rounded=0;" parent="jn4TW-u3W-nK7IEm40rL-137" vertex="1">
          <mxGeometry x="484.52" y="739" width="120" height="60" as="geometry" />
        </mxCell>
        <mxCell id="jn4TW-u3W-nK7IEm40rL-83" value="Update local reference table" style="whiteSpace=wrap;html=1;rounded=0;" parent="jn4TW-u3W-nK7IEm40rL-137" vertex="1">
          <mxGeometry x="484.52" y="630" width="120" height="60" as="geometry" />
        </mxCell>
        <mxCell id="jn4TW-u3W-nK7IEm40rL-84" value="" style="edgeStyle=orthogonalEdgeStyle;rounded=0;orthogonalLoop=1;jettySize=auto;html=1;endArrow=open;endFill=0;strokeColor=#000000;" parent="jn4TW-u3W-nK7IEm40rL-137" source="jn4TW-u3W-nK7IEm40rL-83" target="jn4TW-u3W-nK7IEm40rL-81" edge="1">
          <mxGeometry relative="1" as="geometry" />
        </mxCell>
        <mxCell id="jn4TW-u3W-nK7IEm40rL-85" value="Receive file" style="whiteSpace=wrap;html=1;rounded=0;" parent="jn4TW-u3W-nK7IEm40rL-137" vertex="1">
          <mxGeometry x="194.52" y="840" width="120" height="60" as="geometry" />
        </mxCell>
        <mxCell id="jn4TW-u3W-nK7IEm40rL-89" value="Compare checksum with reference table" style="whiteSpace=wrap;html=1;rounded=0;" parent="jn4TW-u3W-nK7IEm40rL-137" vertex="1">
          <mxGeometry x="194.52" y="940" width="120" height="60" as="geometry" />
        </mxCell>
        <mxCell id="jn4TW-u3W-nK7IEm40rL-91" value="" style="edgeStyle=orthogonalEdgeStyle;rounded=0;orthogonalLoop=1;jettySize=auto;html=1;endArrow=open;endFill=0;strokeColor=#000000;entryX=0.5;entryY=0;entryDx=0;entryDy=0;" parent="jn4TW-u3W-nK7IEm40rL-137" source="jn4TW-u3W-nK7IEm40rL-85" target="jn4TW-u3W-nK7IEm40rL-89" edge="1">
          <mxGeometry relative="1" as="geometry" />
        </mxCell>
        <mxCell id="jn4TW-u3W-nK7IEm40rL-90" value="" style="rhombus;whiteSpace=wrap;html=1;rounded=0;" parent="jn4TW-u3W-nK7IEm40rL-137" vertex="1">
          <mxGeometry x="214.52" y="1030" width="80" height="80" as="geometry" />
        </mxCell>
        <mxCell id="jn4TW-u3W-nK7IEm40rL-117" value="" style="edgeStyle=orthogonalEdgeStyle;rounded=0;orthogonalLoop=1;jettySize=auto;html=1;endArrow=open;endFill=0;strokeColor=#000000;" parent="jn4TW-u3W-nK7IEm40rL-137" source="jn4TW-u3W-nK7IEm40rL-89" target="jn4TW-u3W-nK7IEm40rL-90" edge="1">
          <mxGeometry relative="1" as="geometry" />
        </mxCell>
        <mxCell id="jn4TW-u3W-nK7IEm40rL-92" value="Store file on local file system" style="whiteSpace=wrap;html=1;rounded=0;" parent="jn4TW-u3W-nK7IEm40rL-137" vertex="1">
          <mxGeometry x="364.52" y="1200" width="120" height="60" as="geometry" />
        </mxCell>
        <mxCell id="jn4TW-u3W-nK7IEm40rL-93" value="[Checksum OK]" style="edgeStyle=orthogonalEdgeStyle;rounded=0;orthogonalLoop=1;jettySize=auto;html=1;endArrow=open;endFill=0;strokeColor=#000000;" parent="jn4TW-u3W-nK7IEm40rL-137" source="jn4TW-u3W-nK7IEm40rL-90" target="jn4TW-u3W-nK7IEm40rL-92" edge="1">
          <mxGeometry relative="1" as="geometry" />
        </mxCell>
        <mxCell id="jn4TW-u3W-nK7IEm40rL-94" value="Show dialog &quot;Re-request file&quot;" style="whiteSpace=wrap;html=1;rounded=0;" parent="jn4TW-u3W-nK7IEm40rL-137" vertex="1">
          <mxGeometry x="194.52" y="1200" width="120" height="60" as="geometry" />
        </mxCell>
        <mxCell id="jn4TW-u3W-nK7IEm40rL-95" value="[Checksum doesnÂ´t match]" style="edgeStyle=orthogonalEdgeStyle;rounded=0;orthogonalLoop=1;jettySize=auto;html=1;endArrow=open;endFill=0;strokeColor=#000000;" parent="jn4TW-u3W-nK7IEm40rL-137" source="jn4TW-u3W-nK7IEm40rL-90" target="jn4TW-u3W-nK7IEm40rL-94" edge="1">
          <mxGeometry relative="1" as="geometry" />
        </mxCell>
        <mxCell id="jn4TW-u3W-nK7IEm40rL-118" value="" style="rhombus;whiteSpace=wrap;html=1;rounded=0;" parent="jn4TW-u3W-nK7IEm40rL-137" vertex="1">
          <mxGeometry x="214.52" y="1330" width="80" height="80" as="geometry" />
        </mxCell>
        <mxCell id="jn4TW-u3W-nK7IEm40rL-119" value="" style="edgeStyle=orthogonalEdgeStyle;rounded=0;orthogonalLoop=1;jettySize=auto;html=1;endArrow=open;endFill=0;strokeColor=#000000;" parent="jn4TW-u3W-nK7IEm40rL-137" source="jn4TW-u3W-nK7IEm40rL-94" target="jn4TW-u3W-nK7IEm40rL-118" edge="1">
          <mxGeometry relative="1" as="geometry" />
        </mxCell>
        <mxCell id="jn4TW-u3W-nK7IEm40rL-123" style="edgeStyle=orthogonalEdgeStyle;rounded=0;orthogonalLoop=1;jettySize=auto;html=1;entryX=0;entryY=0.5;entryDx=0;entryDy=0;endArrow=open;endFill=0;strokeColor=#000000;" parent="jn4TW-u3W-nK7IEm40rL-137" source="jn4TW-u3W-nK7IEm40rL-121" target="jn4TW-u3W-nK7IEm40rL-68" edge="1">
          <mxGeometry relative="1" as="geometry" />
        </mxCell>
        <mxCell id="jn4TW-u3W-nK7IEm40rL-121" value="" style="rhombus;whiteSpace=wrap;html=1;rounded=0;" parent="jn4TW-u3W-nK7IEm40rL-137" vertex="1">
          <mxGeometry x="330" y="225" width="80" height="80" as="geometry" />
        </mxCell>
        <mxCell id="jn4TW-u3W-nK7IEm40rL-122" value="" style="edgeStyle=orthogonalEdgeStyle;rounded=0;orthogonalLoop=1;jettySize=auto;html=1;endArrow=open;endFill=0;strokeColor=#000000;" parent="jn4TW-u3W-nK7IEm40rL-137" source="jn4TW-u3W-nK7IEm40rL-66" target="jn4TW-u3W-nK7IEm40rL-121" edge="1">
          <mxGeometry relative="1" as="geometry" />
        </mxCell>
        <mxCell id="jn4TW-u3W-nK7IEm40rL-120" value="" style="edgeStyle=orthogonalEdgeStyle;rounded=0;orthogonalLoop=1;jettySize=auto;html=1;entryX=0;entryY=0.5;entryDx=0;entryDy=0;endArrow=open;endFill=0;strokeColor=#000000;exitX=0;exitY=0.5;exitDx=0;exitDy=0;" parent="jn4TW-u3W-nK7IEm40rL-137" source="jn4TW-u3W-nK7IEm40rL-118" target="jn4TW-u3W-nK7IEm40rL-121" edge="1">
          <mxGeometry relative="1" as="geometry">
            <Array as="points">
              <mxPoint x="120" y="1370" />
              <mxPoint x="120" y="265" />
            </Array>
          </mxGeometry>
        </mxCell>
        <mxCell id="jn4TW-u3W-nK7IEm40rL-124" value="[User requests download again]" style="edgeLabel;html=1;align=center;verticalAlign=middle;resizable=0;points=[];" parent="jn4TW-u3W-nK7IEm40rL-120" vertex="1" connectable="0">
          <mxGeometry x="-0.8804" y="-1" relative="1" as="geometry">
            <mxPoint x="-15.52" y="1" as="offset" />
          </mxGeometry>
        </mxCell>
        <mxCell id="jn4TW-u3W-nK7IEm40rL-125" value="Show success message" style="whiteSpace=wrap;html=1;rounded=0;" parent="jn4TW-u3W-nK7IEm40rL-137" vertex="1">
          <mxGeometry x="364.52" y="1340" width="120" height="60" as="geometry" />
        </mxCell>
        <mxCell id="jn4TW-u3W-nK7IEm40rL-126" value="" style="edgeStyle=orthogonalEdgeStyle;rounded=0;orthogonalLoop=1;jettySize=auto;html=1;endArrow=open;endFill=0;strokeColor=#000000;" parent="jn4TW-u3W-nK7IEm40rL-137" source="jn4TW-u3W-nK7IEm40rL-92" target="jn4TW-u3W-nK7IEm40rL-125" edge="1">
          <mxGeometry relative="1" as="geometry" />
        </mxCell>
        <mxCell id="jn4TW-u3W-nK7IEm40rL-127" value="" style="ellipse;html=1;shape=endState;fillColor=#000000;strokeColor=#ff0000;" parent="jn4TW-u3W-nK7IEm40rL-137" vertex="1">
          <mxGeometry x="529.52" y="1480" width="30" height="30" as="geometry" />
        </mxCell>
        <mxCell id="jn4TW-u3W-nK7IEm40rL-130" style="edgeStyle=orthogonalEdgeStyle;rounded=0;orthogonalLoop=1;jettySize=auto;html=1;entryX=0.5;entryY=0;entryDx=0;entryDy=0;endArrow=open;endFill=0;strokeColor=#000000;" parent="jn4TW-u3W-nK7IEm40rL-137" source="jn4TW-u3W-nK7IEm40rL-81" target="jn4TW-u3W-nK7IEm40rL-127" edge="1">
          <mxGeometry relative="1" as="geometry" />
        </mxCell>
        <mxCell id="jn4TW-u3W-nK7IEm40rL-133" value="" style="edgeStyle=orthogonalEdgeStyle;rounded=0;orthogonalLoop=1;jettySize=auto;html=1;endArrow=open;endFill=0;strokeColor=#000000;" parent="jn4TW-u3W-nK7IEm40rL-137" source="jn4TW-u3W-nK7IEm40rL-132" target="jn4TW-u3W-nK7IEm40rL-127" edge="1">
          <mxGeometry relative="1" as="geometry" />
        </mxCell>
        <mxCell id="jn4TW-u3W-nK7IEm40rL-132" value="" style="rhombus;whiteSpace=wrap;html=1;rounded=0;" parent="jn4TW-u3W-nK7IEm40rL-137" vertex="1">
          <mxGeometry x="384.52" y="1455" width="80" height="80" as="geometry" />
        </mxCell>
        <mxCell id="jn4TW-u3W-nK7IEm40rL-128" value="[Aborted]" style="edgeStyle=orthogonalEdgeStyle;rounded=0;orthogonalLoop=1;jettySize=auto;html=1;endArrow=open;endFill=0;strokeColor=#000000;exitX=0.5;exitY=1;exitDx=0;exitDy=0;entryX=0;entryY=0.5;entryDx=0;entryDy=0;" parent="jn4TW-u3W-nK7IEm40rL-137" source="jn4TW-u3W-nK7IEm40rL-118" target="jn4TW-u3W-nK7IEm40rL-132" edge="1">
          <mxGeometry relative="1" as="geometry" />
        </mxCell>
        <mxCell id="jn4TW-u3W-nK7IEm40rL-129" style="edgeStyle=orthogonalEdgeStyle;rounded=0;orthogonalLoop=1;jettySize=auto;html=1;endArrow=open;endFill=0;strokeColor=#000000;exitX=0.5;exitY=1;exitDx=0;exitDy=0;" parent="jn4TW-u3W-nK7IEm40rL-137" source="jn4TW-u3W-nK7IEm40rL-125" target="jn4TW-u3W-nK7IEm40rL-132" edge="1">
          <mxGeometry relative="1" as="geometry" />
        </mxCell>
        <mxCell id="jn4TW-u3W-nK7IEm40rL-134" value="Vaultionizer App (vault-android-app)" style="swimlane;strokeWidth=3;" parent="jn4TW-u3W-nK7IEm40rL-137" vertex="1">
          <mxGeometry width="670" height="1560" as="geometry" />
        </mxCell>
        <mxCell id="jn4TW-u3W-nK7IEm40rL-138" value="" style="ellipse;whiteSpace=wrap;html=1;aspect=fixed;strokeWidth=3;fillColor=#000000;strokeColor=#FF0000;" parent="jn4TW-u3W-nK7IEm40rL-134" vertex="1">
          <mxGeometry x="180" y="75" width="30" height="30" as="geometry" />
        </mxCell>
        <mxCell id="jn4TW-u3W-nK7IEm40rL-139" style="edgeStyle=orthogonalEdgeStyle;rounded=0;orthogonalLoop=1;jettySize=auto;html=1;exitX=1;exitY=0.5;exitDx=0;exitDy=0;entryX=0;entryY=0.5;entryDx=0;entryDy=0;endArrow=open;endFill=0;strokeColor=#000000;" parent="jn4TW-u3W-nK7IEm40rL-137" source="jn4TW-u3W-nK7IEm40rL-138" target="jn4TW-u3W-nK7IEm40rL-64" edge="1">
          <mxGeometry relative="1" as="geometry" />
        </mxCell>
        <mxCell id="jn4TW-u3W-nK7IEm40rL-97" value="" style="edgeStyle=orthogonalEdgeStyle;rounded=0;orthogonalLoop=1;jettySize=auto;html=1;endArrow=open;endFill=0;strokeColor=#000000;entryX=1;entryY=0.5;entryDx=0;entryDy=0;exitX=0.5;exitY=1;exitDx=0;exitDy=0;" parent="1" source="jn4TW-u3W-nK7IEm40rL-79" target="jn4TW-u3W-nK7IEm40rL-83" edge="1">
          <mxGeometry relative="1" as="geometry">
            <mxPoint x="610" y="1060" as="targetPoint" />
          </mxGeometry>
        </mxCell>
      </root>
    </mxGraphModel>
  </diagram>
</mxfile>
